<svg fill="none" height="42" viewBox="0 0 24 24" width="42" xmlns="http://www.w3.org/2000/svg"><g stroke="#001a72" stroke-linecap="round" stroke-linejoin="round" stroke-width="1.5"><path d="m9 20 3-3 3 3"/><path d="m15 4-3 3-3-3"/><path d="m12 3v4 5 5 4"/><path d="m17.4282 18.5981-1.0981-4.0981 4.0981-1.0981"/><path d="m6.57181 5.40193 1.09807 4.09808-4.09807 1.09809"/><path d="m4.20578 7.5 3.4641 2 4.33012 2.5 4.3301 2.5 3.4641 2"/><path d="m20.4282 10.598-4.0981-1.09805 1.0981-4.09808"/><path d="m3.57181 13.4019 4.09807 1.098-1.09807 4.0981"/><path d="m4.20584 16.5 3.4641-2 4.33016-2.5 4.3301-2.5 3.4641-2"/></g></svg>